<svg width="17" height="14" viewBox="0 0 17 14" fill="none" xmlns="http://www.w3.org/2000/svg">
<path d="M0 7.00451C0 7.27531 0.116746 7.5461 0.323296 7.74468L6.2504 13.6931C6.46593 13.9007 6.69942 14 6.95985 14C7.52562 14 7.93872 13.5938 7.93872 13.0432C7.93872 12.7544 7.83096 12.5106 7.64237 12.3301L5.62176 10.2721L3.01743 7.88008L5.10988 8.00645H15.9942C16.5869 8.00645 17 7.59123 17 7.00451C17 6.40877 16.5869 5.99355 15.9942 5.99355H5.10988L3.02641 6.11992L5.62176 3.72792L7.64237 1.66989C7.83096 1.48936 7.93872 1.24565 7.93872 0.956802C7.93872 0.40619 7.52562 0 6.95985 0C6.69942 0 6.45695 0.0992908 6.22345 0.324952L0.323296 6.25532C0.116746 6.4539 0 6.72469 0 7.00451Z" fill="#1C1C1E"/>
</svg>
