<svg width="125" height="21" viewBox="0 0 125 21" fill="none" xmlns="http://www.w3.org/2000/svg">
<path d="M10.5929 20.4249C16.5415 20.4249 20.8471 15.9776 20.8471 10.5106C20.8471 5.0436 16.5415 0.596339 10.5929 0.596339C4.64432 0.596339 0.338693 5.0436 0.338693 10.5106C0.338693 15.9776 4.64432 20.4249 10.5929 20.4249ZM10.5929 15.751C7.59028 15.751 5.43747 13.5132 5.43747 10.5106C5.43747 7.50801 7.59028 5.27021 10.5929 5.27021C13.5672 5.27021 15.7483 7.50801 15.7483 10.5106C15.7483 13.5132 13.5672 15.751 10.5929 15.751ZM43.3598 1.02124H30.018V20H34.9468V13.4566H42.51V9.15095H34.9468V5.27021H43.3598V1.02124ZM61.7736 20.4249C67.5522 20.4249 70.923 16.7708 70.923 11.1338V1.02124H65.9659V10.8789C65.9659 13.8531 64.6062 15.751 61.7736 15.751C58.9409 15.751 57.5813 13.8531 57.5813 10.8789V1.02124H52.6241V11.1338C52.6241 16.7708 55.995 20.4249 61.7736 20.4249ZM96.4603 1.02124H80.1725V5.27021H85.8378V20H90.795V5.27021H96.4603V1.02124ZM114.874 20.4249C120.652 20.4249 124.023 16.7708 124.023 11.1338V1.02124H119.066V10.8789C119.066 13.8531 117.706 15.751 114.874 15.751C112.041 15.751 110.681 13.8531 110.681 10.8789V1.02124H105.724V11.1338C105.724 16.7708 109.095 20.4249 114.874 20.4249Z" fill="black"/>
</svg>
